<?xml version="1.0" encoding="utf-8"?>
<!-- Generator: Adobe Illustrator 23.0.0, SVG Export Plug-In . SVG Version: 6.00 Build 0)  -->
<svg version="1.1" id="Layer_1" xmlns="http://www.w3.org/2000/svg" xmlns:xlink="http://www.w3.org/1999/xlink" x="0px" y="0px"
	 viewBox="0 0 139.2 125.4" style="enable-background:new 0 0 139.2 125.4;" xml:space="preserve">
<style type="text/css">
	.st0{fill:#803BE3;}
	.st1{fill:#6E23E5;}
	.st2{fill:#483E57;}
	.st3{fill:#FFFFFF;}
	.st4{fill:none;stroke:#3D6CB4;stroke-linecap:round;stroke-linejoin:round;stroke-miterlimit:10;}
	.st5{opacity:0.3;fill:#803BE3;enable-background:new    ;}
	.st6{fill:none;}
</style>
<path class="st0" d="M128.8,119.1l-43.9,0l40.3-102.7h11.5v94.8C136.7,115.6,133.1,119.1,128.8,119.1z"/>
<polygon class="st1" points="85.9,117.6 53.9,117.6 53.9,14.9 125.1,16.4 "/>
<path id="Path_3256" class="st0" d="M52.9,14.9V9.4c0-4.3,3.5-7.9,7.9-7.9h69c4.3,0,7.9,3.5,7.9,7.9v5.5H52.9z"/>
<g>
	<path class="st2" d="M118.8,117.6C118.8,117.6,118.8,117.6,118.8,117.6l-58.1,0c-3.5,0-6.4-2.9-6.4-6.4l0-2.1
		c0-0.8-0.7-1.5-1.5-1.5c0,0,0,0,0,0c-0.8,0-1.5,0.7-1.5,1.5l0,2.1c0,5.2,4.2,9.4,9.4,9.4l58.1,0c0.8,0,1.5-0.7,1.5-1.5
		C120.3,118.3,119.7,117.6,118.8,117.6z"/>
	<path class="st2" d="M129.8,0h-69c-5.2,0-9.4,4.2-9.4,9.4v0v5.5v53.8c0,0.8,0.7,1.5,1.5,1.5s1.5-0.7,1.5-1.5V16.4h81.8v94.9
		c0,3.5-2.9,6.4-6.4,6.4h-3.4c-0.8,0-1.5,0.7-1.5,1.5s0.7,1.5,1.5,1.5h3.4c5.2,0,9.4-4.2,9.4-9.4V14.9V9.4v0
		C139.1,4.2,134.9,0,129.8,0z M54.4,13.4v-4c0-3.5,2.9-6.4,6.4-6.4h69c3.5,0,6.4,2.9,6.4,6.4v4H54.4z"/>
</g>
<path class="st3" d="M124.3,30.7h-62c-1.7,0-3-1.3-3-3s1.3-3,3-3h62c1.7,0,3,1.3,3,3S126,30.7,124.3,30.7z"/>
<path class="st3" d="M105.3,58.7h-43c-1.7,0-3-1.3-3-3s1.3-3,3-3h43c1.7,0,3,1.3,3,3S107,58.7,105.3,58.7z"/>
<path class="st3" d="M111.3,46.7h-49c-1.7,0-3-1.3-3-3s1.3-3,3-3h49c1.7,0,3,1.3,3,3S113,46.7,111.3,46.7z"/>
<g id="Group_65">
	<path id="Path_3258" class="st4" d="M126.4,123.9h-7.6V63.2l3.8-7.4l3.8,7.4V123.9z"/>
	<line id="Line_17" class="st4" x1="118.8" y1="64.5" x2="126.4" y2="64.5"/>
	<line id="Line_18" class="st4" x1="118.8" y1="115.4" x2="126.4" y2="115.4"/>
	<line id="Line_19" class="st4" x1="118.8" y1="110" x2="126.4" y2="110"/>
</g>
<rect x="1.5" y="68.7" class="st3" width="73.6" height="40.5"/>
<path class="st3" d="M126.4,123.9h-7.6V63.2c0,0,3.7-7.4,3.7-7.4c0,0,3.9,6.9,3.9,6.9C126.4,85.4,126.4,101.2,126.4,123.9z"/>
<path class="st2" d="M127.8,62.5l-3.8-7.4c-0.3-0.5-0.8-0.8-1.3-0.8s-1.1,0.3-1.3,0.8l-3.8,7.4c-0.1,0.2-0.2,0.4-0.2,0.7v60.7
	c0,0.8,0.7,1.5,1.5,1.5h7.6c0.8,0,1.5-0.7,1.5-1.5V63.2C127.9,62.9,127.9,62.7,127.8,62.5z M124.9,66v42.5h-4.6V66H124.9z
	 M120.3,111.5h4.6v2.4h-4.6V111.5z M122.6,59l2,4h-4.1L122.6,59z M120.3,122.4v-5.5h4.6v5.5H120.3z"/>
<path class="st2" d="M75.1,110.6H1.5c-0.8,0-1.5-0.7-1.5-1.5V68.7c0-0.8,0.7-1.5,1.5-1.5h73.6c0.8,0,1.5,0.7,1.5,1.5v40.5
	C76.6,110,76,110.6,75.1,110.6z M3,107.6h70.6V70.2H3V107.6z"/>
<rect id="Rectangle_94" x="9.2" y="77.5" class="st5" width="19.1" height="22.8"/>
<path class="st1" d="M28.3,101.3H9.2c-0.6,0-1-0.4-1-1V77.5c0-0.6,0.4-1,1-1h19.1c0.6,0,1,0.4,1,1v22.8
	C29.3,100.8,28.8,101.3,28.3,101.3z M10.2,99.3h17.1V78.5H10.2V99.3z"/>
<g id="Group_73">
	<g id="Group_71">
		<path class="st1" d="M68.3,80.2h-31c-0.8,0-1.5-0.7-1.5-1.5s0.7-1.5,1.5-1.5h31c0.8,0,1.5,0.7,1.5,1.5S69.1,80.2,68.3,80.2z"/>
		<path class="st1" d="M58.3,88.2h-21c-0.8,0-1.5-0.7-1.5-1.5s0.7-1.5,1.5-1.5h21c0.8,0,1.5,0.7,1.5,1.5S59.1,88.2,58.3,88.2z"/>
	</g>
	<g id="Group_72">
		<path class="st1" d="M39.7,100.2c-1.8,0-3.3-1.5-3.3-3.3s1.5-3.3,3.3-3.3s3.3,1.5,3.3,3.3S41.5,100.2,39.7,100.2z M39.7,95.7
			c-0.7,0-1.3,0.6-1.3,1.3s0.6,1.3,1.3,1.3c0.7,0,1.3-0.6,1.3-1.3S40.4,95.7,39.7,95.7z"/>
		<path class="st1" d="M50,100.2c-1.8,0-3.3-1.5-3.3-3.3s1.5-3.3,3.3-3.3s3.3,1.5,3.3,3.3S51.8,100.2,50,100.2z M50,95.7
			c-0.7,0-1.3,0.6-1.3,1.3s0.6,1.3,1.3,1.3s1.3-0.6,1.3-1.3S50.7,95.7,50,95.7z"/>
		<path class="st1" d="M60.3,100.2c-1.8,0-3.3-1.5-3.3-3.3s1.5-3.3,3.3-3.3s3.3,1.5,3.3,3.3S62.1,100.2,60.3,100.2z M60.3,95.7
			c-0.7,0-1.3,0.6-1.3,1.3s0.6,1.3,1.3,1.3c0.7,0,1.3-0.6,1.3-1.3S61,95.7,60.3,95.7z"/>
	</g>
</g>
<g id="Path_3274" transform="translate(21.546 51.355)">
	<path class="st6" d="M3.2-9.9c3.4,0,6.2,2.8,6.2,6.2S6.6,2.6,3.2,2.6S-3-0.2-3-3.6c0,0,0,0,0,0C-3-7.1-0.3-9.9,3.2-9.9z"/>
	<path class="st0" d="M3.2-7.9C0.8-7.9-1-6-1-3.6s1.9,4.2,4.2,4.2s4.2-1.9,4.2-4.2S5.5-7.9,3.2-7.9 M3.2-9.9c3.4,0,6.2,2.8,6.2,6.2
		S6.6,2.6,3.2,2.6S-3-0.2-3-3.6S-0.3-9.9,3.2-9.9z"/>
</g>
<path class="st0" d="M42.5,13.9h-2.9V11c0-0.6-0.4-1-1-1s-1,0.4-1,1v2.9h-2.9c-0.6,0-1,0.4-1,1s0.4,1,1,1h2.9v2.9c0,0.6,0.4,1,1,1
	s1-0.4,1-1v-2.9h2.9c0.6,0,1-0.4,1-1S43,13.9,42.5,13.9z"/>
</svg>
