<svg xmlns="http://www.w3.org/2000/svg" width="217.207" height="144.333" viewBox="0 0 217.207 144.333">
  <g id="Group_64" data-name="Group 64" transform="translate(-546.126 -477)">
    <path id="Path_3218" data-name="Path 3218" d="M186.349,111.734a2.478,2.478,0,0,0-2.264,1.637l-.906,2.125a2.517,2.517,0,0,0,.453,2.717l3.309,3.309a1.18,1.18,0,0,1,0,1.6l-6.026,5.991a1.18,1.18,0,0,1-1.6,0L176,125.806a2.6,2.6,0,0,0-2.752-.453l-2.16.871a2.5,2.5,0,0,0-1.6,2.264v4.667a1.1,1.1,0,0,1-1.115,1.115h-8.534a1.1,1.1,0,0,1-1.115-1.115v-4.667a2.478,2.478,0,0,0-1.637-2.264l-2.16-.906a2.225,2.225,0,0,0-.975-.209,2.511,2.511,0,0,0-1.742.662l-3.309,3.309a1.18,1.18,0,0,1-1.6,0l-6.026-5.991a1.18,1.18,0,0,1,0-1.6l3.309-3.309a2.5,2.5,0,0,0,.453-2.752l-.906-2.125a2.535,2.535,0,0,0-2.264-1.6h-4.7a1.073,1.073,0,0,1-1.115-1.115V106.3H41.483A3.493,3.493,0,0,0,38,109.783v93.7H189.867V111.734Z" transform="translate(546.828 402.143)" fill="#58545d"/>
    <path id="Path_3219" data-name="Path 3219" d="M197.242,145.372a1.18,1.18,0,0,1-1.6,0l-3.309-3.309a2.6,2.6,0,0,0-2.752-.453l-2.16.871a2.5,2.5,0,0,0-1.6,2.264v4.667a1.1,1.1,0,0,1-1.115,1.115h-8.534a1.1,1.1,0,0,1-1.115-1.115V144.78a2.478,2.478,0,0,0-1.637-2.264l-2.16-.906a2.225,2.225,0,0,0-.975-.209,2.511,2.511,0,0,0-1.742.662l-3.309,3.309a1.18,1.18,0,0,1-1.6,0l-6.026-5.991a1.18,1.18,0,0,1,0-1.6l3.309-3.309a2.5,2.5,0,0,0,.453-2.752l-.174-.418H64.742A1.747,1.747,0,0,0,63,133.042v77.327a1.747,1.747,0,0,0,1.742,1.742H195.71a1.747,1.747,0,0,0,1.742-1.742V145.163Z" transform="translate(530.536 385.851)" fill="#8247d8"/>
    <path id="Path_3220" data-name="Path 3220" d="M219.381,153.842a1.747,1.747,0,0,0-1.742-1.742h-23.2a1.747,1.747,0,0,0-1.742,1.742v20.551a1.747,1.747,0,0,0,1.742,1.742h24.94Z" transform="translate(446.013 372.296)" fill="#fff"/>
    <path id="Path_3221" data-name="Path 3221" d="M331.546,155.165l-2.16.871a2.5,2.5,0,0,0-1.6,2.264v4.667a1.1,1.1,0,0,1-1.115,1.115h-8.534a1.1,1.1,0,0,1-1.115-1.115v-4.633a2.478,2.478,0,0,0-1.637-2.264l-2.16-.906a2.225,2.225,0,0,0-.975-.209,2.511,2.511,0,0,0-1.742.662l-3.309,3.309a1.18,1.18,0,0,1-1.6,0l-6.026-5.991a1.1,1.1,0,0,1-.314-.8V152.1H282.642a1.747,1.747,0,0,0-1.742,1.742v22.292h48.939a1.747,1.747,0,0,0,1.742-1.742l-.035-19.227Z" transform="translate(388.535 372.296)" fill="#fff"/>
    <path id="Path_3222" data-name="Path 3222" d="M199.7,174.492V153.942a1.747,1.747,0,0,1,1.742-1.742h-6.9a1.747,1.747,0,0,0-1.742,1.742v20.551a1.747,1.747,0,0,0,1.742,1.742h6.9A1.747,1.747,0,0,1,199.7,174.492Z" transform="translate(445.948 372.231)" fill="#dad7dd"/>
    <path id="Path_3223" data-name="Path 3223" d="M287.6,170.417V153.942a1.747,1.747,0,0,1,1.742-1.742h-6.9a1.747,1.747,0,0,0-1.742,1.742v16.476Z" transform="translate(388.665 372.231)" fill="#dad7dd"/>
    <path id="Path_3224" data-name="Path 3224" d="M64.742,131.4A1.747,1.747,0,0,0,63,133.142v77.327a1.747,1.747,0,0,0,1.742,1.742h35.18V131.4Z" transform="translate(530.536 385.786)" fill="#8d5fd4"/>
    <path id="Path_3225" data-name="Path 3225" d="M200.058,400.423H5.792S.053,398.39.1,392.232,5.9,384.4,5.9,384.4H199.669A8.053,8.053,0,0,1,206,392.633C206.048,399.748,200.058,400.423,200.058,400.423Z" transform="translate(557.333 220.911)" fill="#3d3b40"/>
    <g id="Group_54" data-name="Group 54" transform="translate(598.134 532.268)">
      <path id="Path_3226" data-name="Path 3226" d="M98.667,179.925H78.812a2.612,2.612,0,1,1,0-5.225H98.667a2.612,2.612,0,0,1,0,5.225Z" transform="translate(-76.2 -174.7)" fill="#dad7dd"/>
      <path id="Path_3227" data-name="Path 3227" d="M98.667,212.925H78.812a2.612,2.612,0,0,1,0-5.225H98.667a2.612,2.612,0,0,1,0,5.225Z" transform="translate(-76.2 -196.205)" fill="#dad7dd"/>
      <path id="Path_3228" data-name="Path 3228" d="M98.667,245.925H78.812a2.612,2.612,0,0,1,0-5.225H98.667a2.612,2.612,0,0,1,0,5.225Z" transform="translate(-76.2 -217.711)" fill="#dad7dd"/>
      <path id="Path_3229" data-name="Path 3229" d="M98.667,278.925H78.812a2.612,2.612,0,1,1,0-5.225H98.667a2.612,2.612,0,1,1,0,5.225Z" transform="translate(-76.2 -239.216)" fill="#dad7dd"/>
      <path id="Path_3230" data-name="Path 3230" d="M92.745,311.925H78.812a2.612,2.612,0,1,1,0-5.225H92.745a2.612,2.612,0,1,1,0,5.225Z" transform="translate(-76.2 -260.722)" fill="#dad7dd"/>
    </g>
    <g id="Group_55" data-name="Group 55" transform="translate(638.713 558.531)">
      <path id="Path_3231" data-name="Path 3231" d="M200.537,281.449a1.071,1.071,0,0,1-1.045,1.045h-5.747a1.071,1.071,0,0,1-1.045-1.045v-30.3a1.071,1.071,0,0,1,1.045-1.045h5.747a1.071,1.071,0,0,1,1.045,1.045Z" transform="translate(-192.7 -250.1)" fill="#fff"/>
      <path id="Path_3232" data-name="Path 3232" d="M230.537,301.977a1.071,1.071,0,0,1-1.045,1.045h-5.747a1.071,1.071,0,0,1-1.045-1.045V282.645a1.071,1.071,0,0,1,1.045-1.045h5.747a1.071,1.071,0,0,1,1.045,1.045Z" transform="translate(-212.25 -270.628)" fill="#fff"/>
      <path id="Path_3233" data-name="Path 3233" d="M260.537,312.729a1.071,1.071,0,0,1-1.045,1.045h-5.747a1.071,1.071,0,0,1-1.045-1.045V299.145a1.071,1.071,0,0,1,1.045-1.045h5.747a1.071,1.071,0,0,1,1.045,1.045Z" transform="translate(-231.801 -281.381)" fill="#fff"/>
    </g>
    <g id="Group_56" data-name="Group 56" transform="translate(670.062 564.278)">
      <path id="Path_3234" data-name="Path 3234" d="M290.537,292.2a1.071,1.071,0,0,1-1.045,1.045h-5.747A1.071,1.071,0,0,1,282.7,292.2V267.645a1.071,1.071,0,0,1,1.045-1.045h5.747a1.071,1.071,0,0,1,1.045,1.045Z" transform="translate(-282.7 -266.6)" fill="#fff"/>
      <path id="Path_3235" data-name="Path 3235" d="M320.537,306.864a1.071,1.071,0,0,1-1.045,1.045h-5.747a1.071,1.071,0,0,1-1.045-1.045V290.145a1.071,1.071,0,0,1,1.045-1.045h5.747a1.071,1.071,0,0,1,1.045,1.045Z" transform="translate(-302.25 -281.263)" fill="#fff"/>
      <path id="Path_3236" data-name="Path 3236" d="M350.537,318.595a1.071,1.071,0,0,1-1.045,1.045h-5.747a1.071,1.071,0,0,1-1.045-1.045v-10.45a1.071,1.071,0,0,1,1.045-1.045h5.747a1.071,1.071,0,0,1,1.045,1.045Z" transform="translate(-321.801 -292.993)" fill="#fff"/>
    </g>
    <g id="Group_57" data-name="Group 57" transform="translate(701.411 558.531)">
      <path id="Path_3237" data-name="Path 3237" d="M380.537,294.157a1.071,1.071,0,0,1-1.045,1.045h-5.747a1.071,1.071,0,0,1-1.045-1.045V270.645a1.071,1.071,0,0,1,1.045-1.045h5.747a1.071,1.071,0,0,1,1.045,1.045Z" transform="translate(-372.7 -262.808)" fill="#fff"/>
      <path id="Path_3238" data-name="Path 3238" d="M410.537,281.449a1.071,1.071,0,0,1-1.045,1.045h-5.747a1.071,1.071,0,0,1-1.045-1.045v-30.3a1.071,1.071,0,0,1,1.045-1.045h5.747a1.071,1.071,0,0,1,1.045,1.045Z" transform="translate(-392.25 -250.1)" fill="#fff"/>
    </g>
    <g id="Group_58" data-name="Group 58" transform="translate(638.748 558.531)">
      <path id="Path_3239" data-name="Path 3239" d="M196.562,281.449v-30.3a1.071,1.071,0,0,1,1.045-1.045h-3.762a1.071,1.071,0,0,0-1.045,1.045v30.3a1.071,1.071,0,0,0,1.045,1.045h3.762A1.048,1.048,0,0,1,196.562,281.449Z" transform="translate(-192.8 -250.1)" fill="#dad7dd"/>
      <path id="Path_3240" data-name="Path 3240" d="M226.462,301.977V282.645a1.071,1.071,0,0,1,1.045-1.045h-3.762a1.071,1.071,0,0,0-1.045,1.045v19.332a1.071,1.071,0,0,0,1.045,1.045h3.762A1.071,1.071,0,0,1,226.462,301.977Z" transform="translate(-212.285 -270.628)" fill="#dad7dd"/>
      <path id="Path_3241" data-name="Path 3241" d="M256.462,312.729V299.145a1.071,1.071,0,0,1,1.045-1.045h-3.762a1.071,1.071,0,0,0-1.045,1.045v13.585a1.071,1.071,0,0,0,1.045,1.045h3.762A1.071,1.071,0,0,1,256.462,312.729Z" transform="translate(-231.836 -281.381)" fill="#dad7dd"/>
    </g>
    <g id="Group_59" data-name="Group 59" transform="translate(670.062 564.278)">
      <path id="Path_3242" data-name="Path 3242" d="M286.462,292.2V267.645a1.071,1.071,0,0,1,1.045-1.045h-3.762a1.071,1.071,0,0,0-1.045,1.045V292.2a1.071,1.071,0,0,0,1.045,1.045h3.762A1.071,1.071,0,0,1,286.462,292.2Z" transform="translate(-282.7 -266.6)" fill="#dad7dd"/>
      <path id="Path_3243" data-name="Path 3243" d="M316.462,306.864V290.145a1.071,1.071,0,0,1,1.045-1.045h-3.762a1.071,1.071,0,0,0-1.045,1.045v16.719a1.071,1.071,0,0,0,1.045,1.045h3.762A1.071,1.071,0,0,1,316.462,306.864Z" transform="translate(-302.25 -281.263)" fill="#dad7dd"/>
      <path id="Path_3244" data-name="Path 3244" d="M346.462,318.595v-10.45a1.071,1.071,0,0,1,1.045-1.045h-3.762a1.071,1.071,0,0,0-1.045,1.045v10.45a1.071,1.071,0,0,0,1.045,1.045h3.762A1.071,1.071,0,0,1,346.462,318.595Z" transform="translate(-321.801 -292.993)" fill="#dad7dd"/>
    </g>
    <g id="Group_60" data-name="Group 60" transform="translate(701.411 558.531)">
      <path id="Path_3245" data-name="Path 3245" d="M376.462,294.157V270.645a1.071,1.071,0,0,1,1.045-1.045h-3.762a1.071,1.071,0,0,0-1.045,1.045v23.512a1.071,1.071,0,0,0,1.045,1.045h3.762A1.071,1.071,0,0,1,376.462,294.157Z" transform="translate(-372.7 -262.808)" fill="#dad7dd"/>
      <path id="Path_3246" data-name="Path 3246" d="M406.462,281.449v-30.3a1.071,1.071,0,0,1,1.045-1.045h-3.762a1.071,1.071,0,0,0-1.045,1.045v30.3a1.071,1.071,0,0,0,1.045,1.045h3.762A1.071,1.071,0,0,1,406.462,281.449Z" transform="translate(-392.25 -250.1)" fill="#dad7dd"/>
    </g>
    <path id="Path_3247" data-name="Path 3247" d="M193,384.4v3.832a3.493,3.493,0,0,0,3.483,3.483h36.922a3.493,3.493,0,0,0,3.483-3.483V384.4Z" transform="translate(445.817 220.911)" fill="#c5c0cc"/>
    <path id="Path_3251" data-name="Path 3251" d="M341.01,80.565a1.472,1.472,0,0,0,1.463,1.463h8.534a1.472,1.472,0,0,0,1.463-1.463V75.9a2.239,2.239,0,0,1,1.393-1.951l2.194-.906a2.266,2.266,0,0,1,2.369.383l3.309,3.309a1.515,1.515,0,0,0,2.09,0l6.026-5.991a1.472,1.472,0,0,0,0-2.055l-3.309-3.309a2.139,2.139,0,0,1-.383-2.334l.906-2.16a2.239,2.239,0,0,1,1.951-1.393h4.7a1.472,1.472,0,0,0,1.463-1.463V49.564a1.472,1.472,0,0,0-1.463-1.463h-4.7a2.239,2.239,0,0,1-1.951-1.393l-.906-2.16a2.2,2.2,0,0,1,.383-2.334l3.309-3.309a1.472,1.472,0,0,0,0-2.055l-6.026-5.991a1.515,1.515,0,0,0-2.09,0l-3.309,3.309a2.254,2.254,0,0,1-2.369.383l-2.194-.906A2.239,2.239,0,0,1,352.47,31.7V27.063a1.472,1.472,0,0,0-1.463-1.463h-8.534a1.472,1.472,0,0,0-1.463,1.463V31.73a2.239,2.239,0,0,1-1.393,1.951l-2.194.906a2.266,2.266,0,0,1-2.369-.383l-3.309-3.309a1.515,1.515,0,0,0-2.09,0l-6.026,5.991a1.472,1.472,0,0,0,0,2.055l3.309,3.309a2.14,2.14,0,0,1,.383,2.334l-.906,2.16a2.239,2.239,0,0,1-1.951,1.393h-4.7A1.472,1.472,0,0,0,318.3,49.6v8.464a1.472,1.472,0,0,0,1.463,1.463h4.7a2.239,2.239,0,0,1,1.951,1.393l.906,2.16a2.2,2.2,0,0,1-.383,2.334l-3.309,3.309a1.472,1.472,0,0,0,0,2.055l6.026,5.991a1.515,1.515,0,0,0,2.09,0l3.309-3.309a2.254,2.254,0,0,1,2.369-.383l2.194.906a2.239,2.239,0,0,1,1.393,1.951v4.633Z" transform="translate(364.162 454.733)" fill="#8d5fd4"/>
    <ellipse id="Ellipse_194" data-name="Ellipse 194" cx="13.689" cy="13.584" rx="13.689" ry="13.584" transform="translate(697.231 494.963)" fill="#8d5fd4"/>
    <path id="Path_3252" data-name="Path 3252" d="M370.283,92.858a15.779,15.779,0,1,1,15.883-15.779A15.854,15.854,0,0,1,370.283,92.858Zm0-27.169a11.391,11.391,0,1,0,11.495,11.39A11.462,11.462,0,0,0,370.283,65.689Z" transform="translate(340.636 431.468)" fill="#fff"/>
    <ellipse id="Ellipse_195" data-name="Ellipse 195" cx="5.782" cy="5.747" rx="5.782" ry="5.747" transform="translate(705.138 502.8)" fill="#8d5fd4"/>
    <path id="Path_3253" data-name="Path 3253" d="M385.077,99.683a7.942,7.942,0,1,1,7.977-7.942A7.968,7.968,0,0,1,385.077,99.683Zm0-11.495a3.553,3.553,0,1,0,3.588,3.553A3.575,3.575,0,0,0,385.077,88.189Z" transform="translate(325.843 416.806)" fill="#fff"/>
    <g id="Group_62" data-name="Group 62" transform="translate(547.126 512)">
      <line id="Line_9" data-name="Line 9" y2="13.355" transform="translate(6.677)" fill="none" stroke="#8247d8" stroke-linecap="round" stroke-linejoin="round" stroke-miterlimit="10" stroke-width="2"/>
      <line id="Line_10" data-name="Line 10" x1="13.355" transform="translate(0 6.677)" fill="none" stroke="#8247d8" stroke-linecap="round" stroke-linejoin="round" stroke-miterlimit="10" stroke-width="2"/>
    </g>
    <g id="Ellipse_196" data-name="Ellipse 196" transform="translate(563 539)" fill="none" stroke="#8247d8" stroke-width="2">
      <circle cx="4.5" cy="4.5" r="4.5" stroke="none"/>
      <circle cx="4.5" cy="4.5" r="3.5" fill="none"/>
    </g>
    <g id="Ellipse_197" data-name="Ellipse 197" transform="translate(560 477)" fill="none" stroke="#8247d8" stroke-width="2">
      <circle cx="7.5" cy="7.5" r="7.5" stroke="none"/>
      <circle cx="7.5" cy="7.5" r="6.5" fill="none"/>
    </g>
    <g id="Group_63" data-name="Group 63" transform="translate(596.126 485.5)">
      <line id="Line_9-2" data-name="Line 9" y2="7.855" transform="translate(3.927)" fill="none" stroke="#8247d8" stroke-linecap="round" stroke-linejoin="round" stroke-miterlimit="10" stroke-width="2"/>
      <line id="Line_10-2" data-name="Line 10" x1="7.855" transform="translate(0 3.927)" fill="none" stroke="#8247d8" stroke-linecap="round" stroke-linejoin="round" stroke-miterlimit="10" stroke-width="2"/>
    </g>
  </g>
</svg>
