<svg xmlns="http://www.w3.org/2000/svg" xmlns:xlink="http://www.w3.org/1999/xlink" width="1340" height="814" viewBox="0 0 1340 814"><defs><linearGradient id="a" x1="0.966" y1="0.025" x2="0" y2="0.852" gradientUnits="objectBoundingBox"><stop offset="0" stop-color="#5107bf"/><stop offset="1" stop-color="#741ff5"/></linearGradient><linearGradient id="b" x1="0.5" y1="0.082" x2="0.5" y2="1" gradientUnits="objectBoundingBox"><stop offset="0" stop-color="#741ff5"/><stop offset="1" stop-color="#5107bf"/></linearGradient><linearGradient id="c" x1="0.5" y1="0" x2="0.5" y2="1" xlink:href="#a"/></defs><g transform="translate(0 0)"><path d="M0,0H1340V747.84s-96.38-163.59-208.946-147.231S1007.89,827.882,889.736,813.276,789.584,679.482,664.114,689.415,502.183,838.4,387.482,787.569,335.207,544.521,210.908,544.521,0,747.84,0,747.84Z" fill="#741ff5"/><path d="M1021,250.022s83.75,19.379,187-33.788,37.5-114.285,146-174.905,221,26.832,302,0S1678-66,1678-66H1021Z" transform="translate(-1021 66)" fill="url(#a)"/><path d="M-119.269,877.276c-118.809-14.607-100.707-133.794-226.872-123.862-57.238,4.506-96.062,35.591-132.161,63.461C-515.407,777.125-506.951,743.81-460.564,698c57.211-56.5,191.855-27.5,244.628-78s-100.613-79-33.537-124,204.186-3.5,301.84-56-4.439-109.5,88.776-154c50.7-24.206,130.292-29.18,192.348-28.682V688.87q-9.95,4.684-20.714,9.131c-25.437,10.472-47.116,12.445-67.438,10.62-34.741-28.691-77.059-50.5-121.951-44.012-28.5,4.119-50.5,20.579-69.365,42.658-.552.242-1.1.485-1.656.733-88.62,39.6-98.189,120.357-147.575,169.08a83.926,83.926,0,0,1-12.5.92A94.534,94.534,0,0,1-119.269,877.276Z" transform="translate(1006.509 -64)" fill="url(#b)"/><path d="M-805.218,608.521c-30.809,0-59.361,11.795-84.965,29.709,18.661-36.373,44.631-75.307,78.91-102.229,44.972-35.321,75.64-28.122,107.549-20.922,26.813,6.049,54.5,12.1,92.292-7.079,82.762-42,186.216-4,189.748,38s-73.679,121.5-155.432,172c-43.287,26.739-88.846,33.573-122.127,34.084C-720.415,683.426-725.38,608.521-805.218,608.521Z" transform="translate(1016.683 -64)" fill="url(#c)"/></g></svg>